<?xml version="1.0" encoding="UTF-8"?>
<!DOCTYPE svg PUBLIC "-//W3C//DTD SVG 1.1//EN" "http://www.w3.org/Graphics/SVG/1.1/DTD/svg11.dtd">
<svg xmlns="http://www.w3.org/2000/svg" version="1.1" width="512px" height="512px" style="shape-rendering:geometricPrecision; text-rendering:geometricPrecision; image-rendering:optimizeQuality; fill-rule:evenodd; clip-rule:evenodd" xmlns:xlink="http://www.w3.org/1999/xlink">
<g><path style="opacity:0.989" fill="#002dff" d="M 166.5,66.5 C 211.475,64.5627 251.475,77.3961 286.5,105C 319.553,136.281 337.72,174.781 341,220.5C 341.667,238.5 341.667,256.5 341,274.5C 339.098,279.4 335.598,282.567 330.5,284C 255.833,284.333 181.167,284.667 106.5,285C 102.095,286.832 100.428,290.165 101.5,295C 105.147,331.986 125.147,354.653 161.5,363C 200.169,370.75 234.502,362.083 264.5,337C 268.503,333.596 272.836,332.929 277.5,335C 293.053,349.889 308.553,364.722 324,379.5C 325.672,385.658 323.838,390.491 318.5,394C 289.474,416.01 257.141,431.343 221.5,440C 174.328,448.817 128.994,443.15 85.5,423C 55.1273,406.293 33.6273,381.793 21,349.5C 7.04537,308.909 2.37871,267.242 7,224.5C 10.0306,187.059 22.6973,153.392 45,123.5C 67.9679,95.9221 97.1345,78.4221 132.5,71C 143.896,68.8265 155.23,67.3265 166.5,66.5 Z M 161.5,144.5 C 214.307,142.301 242.641,167.635 246.5,220.5C 198.167,220.5 149.833,220.5 101.5,220.5C 101.402,193.2 112.068,171.366 133.5,155C 142.323,149.786 151.657,146.286 161.5,144.5 Z"/></g>
<g><path style="opacity:0.985" fill="#fe3d00" d="M 417.5,91.5 C 421.605,91.2338 425.605,91.7338 429.5,93C 450.644,108.808 467.477,128.308 480,151.5C 506.61,204.717 513.277,260.384 500,318.5C 488.83,363.38 465.663,400.547 430.5,430C 423.167,434.667 415.833,434.667 408.5,430C 396.761,419.05 384.928,408.217 373,397.5C 370.832,392.343 371.165,387.343 374,382.5C 407.125,354.252 425.459,318.252 429,274.5C 432.182,231.201 420.515,192.535 394,158.5C 388.302,152.468 382.302,146.801 376,141.5C 373.144,137.361 372.81,133.028 375,128.5C 388.2,114.783 402.366,102.449 417.5,91.5 Z"/></g>
</svg>
